<svg xmlns="http://www.w3.org/2000/svg" viewBox="0 0 512 512">
  <defs>
    <linearGradient id="bg" x1="0%" x2="100%" y1="0%" y2="100%">
      <stop offset="0%" stop-color="#2f7ef7"/>
      <stop offset="100%" stop-color="#74d4a0"/>
    </linearGradient>
  </defs>
  <rect width="512" height="512" rx="120" fill="url(#bg)"/>
  <rect x="88" y="88" width="336" height="336" rx="42" fill="#ffffff" opacity="0.96"/>
  <rect x="124" y="146" width="264" height="34" rx="17" fill="#e7f0ff"/>
  <rect x="124" y="210" width="108" height="40" rx="16" fill="#dff5e5"/>
  <rect x="248" y="210" width="64" height="40" rx="16" fill="#fde4e4"/>
  <rect x="324" y="210" width="64" height="40" rx="16" fill="#e8f1ff"/>
  <rect x="124" y="274" width="108" height="40" rx="16" fill="#e8f1ff"/>
  <rect x="248" y="274" width="64" height="40" rx="16" fill="#dff5e5"/>
  <rect x="324" y="274" width="64" height="40" rx="16" fill="#fde4e4"/>
  <rect x="124" y="338" width="264" height="42" rx="18" fill="#2f7ef7" opacity="0.18"/>
  <path d="M160 359h35m29 0h34m29 0h65" stroke="#2f7ef7" stroke-linecap="round" stroke-width="18"/>
</svg>
